<mxfile host="app.diagrams.net" agent="Mozilla/5.0 (Windows NT 10.0; Win64; x64) AppleWebKit/537.36 (KHTML, like Gecko) Chrome/133.0.0.0 Safari/537.36" version="24.8.4">
  <diagram name="Page-1" id="4XT7YWIwMJwGY3tQXjvN">
    <mxGraphModel dx="931" dy="617" grid="1" gridSize="10" guides="1" tooltips="1" connect="1" arrows="1" fold="1" page="1" pageScale="1" pageWidth="827" pageHeight="1169" math="0" shadow="0">
      <root>
        <mxCell id="0" />
        <mxCell id="1" parent="0" />
        <mxCell id="J75GmWGU1NDbvXC4cunR-1" value="Mackie MainStream" style="rounded=0;whiteSpace=wrap;html=1;" vertex="1" parent="1">
          <mxGeometry x="100" y="585" width="150" height="60" as="geometry" />
        </mxCell>
        <mxCell id="J75GmWGU1NDbvXC4cunR-4" style="edgeStyle=orthogonalEdgeStyle;rounded=0;orthogonalLoop=1;jettySize=auto;html=1;exitX=0.5;exitY=0;exitDx=0;exitDy=0;entryX=0.25;entryY=1;entryDx=0;entryDy=0;" edge="1" parent="1" source="J75GmWGU1NDbvXC4cunR-2" target="J75GmWGU1NDbvXC4cunR-1">
          <mxGeometry relative="1" as="geometry" />
        </mxCell>
        <mxCell id="J75GmWGU1NDbvXC4cunR-2" value="Mic / XLR" style="rounded=0;whiteSpace=wrap;html=1;" vertex="1" parent="1">
          <mxGeometry x="40" y="720" width="80" height="60" as="geometry" />
        </mxCell>
        <mxCell id="J75GmWGU1NDbvXC4cunR-7" value="PC/HDMI Out" style="rounded=0;whiteSpace=wrap;html=1;" vertex="1" parent="1">
          <mxGeometry x="137.5" y="720" width="75" height="60" as="geometry" />
        </mxCell>
        <mxCell id="J75GmWGU1NDbvXC4cunR-8" value="" style="endArrow=classic;html=1;rounded=0;exitX=0.5;exitY=0;exitDx=0;exitDy=0;entryX=0.5;entryY=1;entryDx=0;entryDy=0;strokeColor=#00CC00;strokeWidth=3;" edge="1" parent="1" source="J75GmWGU1NDbvXC4cunR-7" target="J75GmWGU1NDbvXC4cunR-1">
          <mxGeometry width="50" height="50" relative="1" as="geometry">
            <mxPoint x="390" y="745" as="sourcePoint" />
            <mxPoint x="200" y="646" as="targetPoint" />
          </mxGeometry>
        </mxCell>
        <mxCell id="J75GmWGU1NDbvXC4cunR-43" style="edgeStyle=orthogonalEdgeStyle;rounded=0;orthogonalLoop=1;jettySize=auto;html=1;exitX=0.75;exitY=1;exitDx=0;exitDy=0;entryX=0;entryY=0.5;entryDx=0;entryDy=0;strokeWidth=3;strokeColor=#00CC00;" edge="1" parent="1" source="J75GmWGU1NDbvXC4cunR-9" target="J75GmWGU1NDbvXC4cunR-12">
          <mxGeometry relative="1" as="geometry">
            <Array as="points">
              <mxPoint x="480" y="430" />
            </Array>
          </mxGeometry>
        </mxCell>
        <mxCell id="J75GmWGU1NDbvXC4cunR-9" value="HDMI Selecter" style="rounded=0;whiteSpace=wrap;html=1;" vertex="1" parent="1">
          <mxGeometry x="330" y="330" width="200" height="60" as="geometry" />
        </mxCell>
        <mxCell id="J75GmWGU1NDbvXC4cunR-12" value="LCD Monitor 1" style="rounded=0;whiteSpace=wrap;html=1;" vertex="1" parent="1">
          <mxGeometry x="560" y="400" width="150" height="60" as="geometry" />
        </mxCell>
        <mxCell id="J75GmWGU1NDbvXC4cunR-64" style="edgeStyle=orthogonalEdgeStyle;rounded=0;orthogonalLoop=1;jettySize=auto;html=1;exitX=0.75;exitY=0;exitDx=0;exitDy=0;entryX=0;entryY=0.5;entryDx=0;entryDy=0;strokeColor=#00CC00;strokeWidth=3;" edge="1" parent="1" source="J75GmWGU1NDbvXC4cunR-14" target="J75GmWGU1NDbvXC4cunR-18">
          <mxGeometry relative="1" as="geometry" />
        </mxCell>
        <mxCell id="J75GmWGU1NDbvXC4cunR-14" value="Main PC" style="rounded=0;whiteSpace=wrap;html=1;" vertex="1" parent="1">
          <mxGeometry x="360" y="585" width="150" height="60" as="geometry" />
        </mxCell>
        <mxCell id="J75GmWGU1NDbvXC4cunR-15" value="" style="endArrow=classic;html=1;rounded=0;entryX=0.525;entryY=1;entryDx=0;entryDy=0;exitX=0.5;exitY=0;exitDx=0;exitDy=0;entryPerimeter=0;strokeWidth=3;strokeColor=#00CC00;" edge="1" parent="1" source="J75GmWGU1NDbvXC4cunR-14" target="J75GmWGU1NDbvXC4cunR-9">
          <mxGeometry width="50" height="50" relative="1" as="geometry">
            <mxPoint x="455" y="580" as="sourcePoint" />
            <mxPoint x="440" y="560" as="targetPoint" />
          </mxGeometry>
        </mxCell>
        <mxCell id="J75GmWGU1NDbvXC4cunR-18" value="LCD Monitor 2" style="rounded=0;whiteSpace=wrap;html=1;" vertex="1" parent="1">
          <mxGeometry x="560" y="470" width="150" height="60" as="geometry" />
        </mxCell>
        <mxCell id="J75GmWGU1NDbvXC4cunR-48" style="edgeStyle=orthogonalEdgeStyle;rounded=0;orthogonalLoop=1;jettySize=auto;html=1;exitX=1;exitY=0.25;exitDx=0;exitDy=0;entryX=0.184;entryY=1.033;entryDx=0;entryDy=0;entryPerimeter=0;strokeWidth=3;strokeColor=#CC0000;" edge="1" parent="1" source="J75GmWGU1NDbvXC4cunR-22" target="J75GmWGU1NDbvXC4cunR-9">
          <mxGeometry relative="1" as="geometry">
            <mxPoint x="390" y="400" as="targetPoint" />
          </mxGeometry>
        </mxCell>
        <mxCell id="J75GmWGU1NDbvXC4cunR-67" style="edgeStyle=orthogonalEdgeStyle;rounded=0;orthogonalLoop=1;jettySize=auto;html=1;exitX=1;exitY=0;exitDx=0;exitDy=0;" edge="1" parent="1" source="J75GmWGU1NDbvXC4cunR-22">
          <mxGeometry relative="1" as="geometry">
            <mxPoint x="270" y="240" as="targetPoint" />
            <Array as="points">
              <mxPoint x="240" y="480" />
              <mxPoint x="240" y="460" />
              <mxPoint x="290" y="460" />
              <mxPoint x="290" y="330" />
              <mxPoint x="270" y="330" />
            </Array>
          </mxGeometry>
        </mxCell>
        <mxCell id="J75GmWGU1NDbvXC4cunR-22" value="Atem Mini Pro" style="rounded=0;whiteSpace=wrap;html=1;" vertex="1" parent="1">
          <mxGeometry x="40" y="480" width="210" height="60" as="geometry" />
        </mxCell>
        <mxCell id="J75GmWGU1NDbvXC4cunR-23" value="PC/HDMI Out" style="rounded=0;whiteSpace=wrap;html=1;" vertex="1" parent="1">
          <mxGeometry x="20" y="370" width="75" height="60" as="geometry" />
        </mxCell>
        <mxCell id="J75GmWGU1NDbvXC4cunR-30" value="USB" style="text;html=1;align=center;verticalAlign=middle;whiteSpace=wrap;rounded=0;" vertex="1" parent="1">
          <mxGeometry x="270" y="610" width="60" height="30" as="geometry" />
        </mxCell>
        <mxCell id="J75GmWGU1NDbvXC4cunR-31" value="USB" style="text;html=1;align=center;verticalAlign=middle;whiteSpace=wrap;rounded=0;" vertex="1" parent="1">
          <mxGeometry x="290" y="520" width="60" height="30" as="geometry" />
        </mxCell>
        <mxCell id="J75GmWGU1NDbvXC4cunR-35" value="" style="endArrow=classic;html=1;rounded=0;exitX=1;exitY=0.5;exitDx=0;exitDy=0;entryX=0;entryY=0.5;entryDx=0;entryDy=0;strokeColor=#00CC00;strokeWidth=3;" edge="1" parent="1" source="J75GmWGU1NDbvXC4cunR-1" target="J75GmWGU1NDbvXC4cunR-14">
          <mxGeometry width="50" height="50" relative="1" as="geometry">
            <mxPoint x="390" y="710" as="sourcePoint" />
            <mxPoint x="440" y="660" as="targetPoint" />
          </mxGeometry>
        </mxCell>
        <mxCell id="J75GmWGU1NDbvXC4cunR-38" style="edgeStyle=orthogonalEdgeStyle;rounded=0;orthogonalLoop=1;jettySize=auto;html=1;exitX=0.5;exitY=1;exitDx=0;exitDy=0;entryX=0.5;entryY=0;entryDx=0;entryDy=0;" edge="1" parent="1" source="J75GmWGU1NDbvXC4cunR-39" target="J75GmWGU1NDbvXC4cunR-22">
          <mxGeometry relative="1" as="geometry">
            <mxPoint x="217.5" y="480" as="targetPoint" />
          </mxGeometry>
        </mxCell>
        <mxCell id="J75GmWGU1NDbvXC4cunR-39" value="PC/HDMI Out" style="rounded=0;whiteSpace=wrap;html=1;" vertex="1" parent="1">
          <mxGeometry x="107.5" y="370" width="75" height="60" as="geometry" />
        </mxCell>
        <mxCell id="J75GmWGU1NDbvXC4cunR-40" value="" style="endArrow=classic;html=1;rounded=0;exitX=0.5;exitY=1;exitDx=0;exitDy=0;edgeStyle=orthogonalEdgeStyle;strokeWidth=3;strokeColor=#00CC00;" edge="1" parent="1" source="J75GmWGU1NDbvXC4cunR-23">
          <mxGeometry width="50" height="50" relative="1" as="geometry">
            <mxPoint x="390" y="710" as="sourcePoint" />
            <mxPoint x="77" y="480" as="targetPoint" />
          </mxGeometry>
        </mxCell>
        <mxCell id="J75GmWGU1NDbvXC4cunR-47" value="" style="endArrow=classic;html=1;rounded=0;exitX=0.75;exitY=0;exitDx=0;exitDy=0;entryX=0.358;entryY=1.033;entryDx=0;entryDy=0;entryPerimeter=0;edgeStyle=orthogonalEdgeStyle;strokeWidth=3;strokeColor=#CC0000;" edge="1" parent="1" source="J75GmWGU1NDbvXC4cunR-1" target="J75GmWGU1NDbvXC4cunR-9">
          <mxGeometry width="50" height="50" relative="1" as="geometry">
            <mxPoint x="390" y="710" as="sourcePoint" />
            <mxPoint x="440" y="660" as="targetPoint" />
            <Array as="points">
              <mxPoint x="213" y="560" />
              <mxPoint x="402" y="560" />
            </Array>
          </mxGeometry>
        </mxCell>
        <mxCell id="J75GmWGU1NDbvXC4cunR-51" style="edgeStyle=orthogonalEdgeStyle;rounded=0;orthogonalLoop=1;jettySize=auto;html=1;exitX=1;exitY=0.75;exitDx=0;exitDy=0;entryX=0.069;entryY=0.039;entryDx=0;entryDy=0;entryPerimeter=0;strokeColor=#00CC00;strokeWidth=3;" edge="1" parent="1" source="J75GmWGU1NDbvXC4cunR-22" target="J75GmWGU1NDbvXC4cunR-14">
          <mxGeometry relative="1" as="geometry" />
        </mxCell>
        <mxCell id="J75GmWGU1NDbvXC4cunR-53" value="PC/HDMI Out" style="rounded=0;whiteSpace=wrap;html=1;" vertex="1" parent="1">
          <mxGeometry x="195" y="370" width="75" height="60" as="geometry" />
        </mxCell>
        <mxCell id="J75GmWGU1NDbvXC4cunR-55" style="edgeStyle=orthogonalEdgeStyle;rounded=0;orthogonalLoop=1;jettySize=auto;html=1;exitX=0.5;exitY=1;exitDx=0;exitDy=0;" edge="1" parent="1" source="J75GmWGU1NDbvXC4cunR-53">
          <mxGeometry relative="1" as="geometry">
            <mxPoint x="200" y="480" as="targetPoint" />
          </mxGeometry>
        </mxCell>
        <mxCell id="J75GmWGU1NDbvXC4cunR-56" value="HDMI Selecter" style="rounded=0;whiteSpace=wrap;html=1;" vertex="1" parent="1">
          <mxGeometry x="560" y="645" width="200" height="60" as="geometry" />
        </mxCell>
        <mxCell id="J75GmWGU1NDbvXC4cunR-63" value="" style="endArrow=classic;html=1;rounded=0;exitX=0.205;exitY=0.006;exitDx=0;exitDy=0;exitPerimeter=0;entryX=0.25;entryY=1;entryDx=0;entryDy=0;strokeColor=#CC0000;strokeWidth=3;" edge="1" parent="1" source="J75GmWGU1NDbvXC4cunR-56" target="J75GmWGU1NDbvXC4cunR-18">
          <mxGeometry width="50" height="50" relative="1" as="geometry">
            <mxPoint x="620" y="630" as="sourcePoint" />
            <mxPoint x="660" y="560" as="targetPoint" />
          </mxGeometry>
        </mxCell>
        <mxCell id="J75GmWGU1NDbvXC4cunR-65" value="DP" style="text;html=1;align=center;verticalAlign=middle;whiteSpace=wrap;rounded=0;" vertex="1" parent="1">
          <mxGeometry x="460" y="530" width="60" height="30" as="geometry" />
        </mxCell>
        <mxCell id="J75GmWGU1NDbvXC4cunR-68" value="LAN" style="text;html=1;align=center;verticalAlign=middle;whiteSpace=wrap;rounded=0;" vertex="1" parent="1">
          <mxGeometry x="212.5" y="280" width="60" height="30" as="geometry" />
        </mxCell>
        <mxCell id="J75GmWGU1NDbvXC4cunR-69" value="" style="rounded=0;whiteSpace=wrap;html=1;" vertex="1" parent="1">
          <mxGeometry x="570" y="230" width="210" height="90" as="geometry" />
        </mxCell>
        <mxCell id="J75GmWGU1NDbvXC4cunR-70" value="" style="endArrow=classic;html=1;rounded=0;exitX=0.5;exitY=0;exitDx=0;exitDy=0;strokeWidth=3;strokeColor=#CC0000;" edge="1" parent="1">
          <mxGeometry width="50" height="50" relative="1" as="geometry">
            <mxPoint x="580" y="244.5" as="sourcePoint" />
            <mxPoint x="630.5" y="244.5" as="targetPoint" />
          </mxGeometry>
        </mxCell>
        <mxCell id="J75GmWGU1NDbvXC4cunR-71" value="要調達HDMI ケーブル" style="text;html=1;align=center;verticalAlign=middle;whiteSpace=wrap;rounded=0;" vertex="1" parent="1">
          <mxGeometry x="640" y="230" width="134" height="30" as="geometry" />
        </mxCell>
      </root>
    </mxGraphModel>
  </diagram>
</mxfile>
